# xmcd
#
# Track frame offsets: 
#        150
#        19165
#        35355
#        50955
#        67622
#        86037
#        99815
#        114672
#        129817
#        145822
#        161735
#
# Disc length: 2338 seconds
#
# Revision: 6
# Processed by: cddbd v1.5.1PL2 Copyright (c) Steve Scherf et al.
# Submitted via: ExactAudioCopy v0.95b4
#
DISCID=8909200b
DTITLE=Keith Whitley - Greatest Hits
DYEAR=1990
DGENRE=Country
TTITLE0=Don't Close Your Eyes
TTITLE1=I'm No Stranger To The Rain
TTITLE2=Miami, My Amy
TTITLE3=When You Say Nothing At All
TTITLE4=It Ain't Nothin'
TTITLE5=I'm Over You
TTITLE6=I Wonder Do You Think Of Me
TTITLE7=Ten Feet Away
TTITLE8=Talk To Me Texas
TTITLE9='Til A Tear Becomes A Rose
TTITLE10=Tell Lorrie I Love Her
EXTD=ID3G: 2
EXTT0=
EXTT1=
EXTT2=
EXTT3=
EXTT4=
EXTT5=
EXTT6=
EXTT7=
EXTT8=
EXTT9=
EXTT10=
PLAYORDER=
